<svg xmlns="http://www.w3.org/2000/svg" width="28" height="20.37" viewBox="0 0 28 20.37"><defs><style>.a{fill:#137ded;}.b{fill:none;}</style></defs><g transform="translate(-1152 -499)"><path class="a" d="M18.55,4.965A.977.977,0,1,0,17.162,6.34l7.04,7.04H.972A.967.967,0,0,0,0,14.352a.978.978,0,0,0,.972.986H24.2l-7.04,7.026a1,1,0,0,0,0,1.388.973.973,0,0,0,1.388,0l8.706-8.706a.956.956,0,0,0,0-1.374Z" transform="translate(1152 495.326)"/><rect class="b" width="28" height="20" transform="translate(1152 499)"/></g></svg>